<svg width="33" height="32" viewBox="0 0 33 32" fill="none" xmlns="http://www.w3.org/2000/svg">
<g clip-path="url(#clip0_1128_6566)">
<path d="M20.66 22.855V21.335H19.14V22.855H11.52V21.335H9.99998V16.765H11.52V15.235H19.14V16.765H20.66V15.235H31.33V16.765H32.85V13.715H26.76V12.2H25.24V13.72H16.09V12.2H14.57V10.67H16.09V9.14501H25.24V10.665H26.76V6.10001H25.24V7.62001H16.09V6.10001H14.57V7.62001H2.37998V9.15001H0.849976V13.72H2.37998V15.24H3.89998V16.77H5.42998V15.24H8.46998V16.77H6.94998V21.34H8.46998V22.86H5.42998V21.34H3.89998V22.86H2.37998V24.39H0.849976V28.96H2.37998V30.48H32.85V27.43H31.33V28.96H19.14V27.43H17.62V25.91H19.14V24.39H31.33V25.91H32.85V21.34H31.33V22.86L20.66 22.855ZM6.94998 12.2H3.89998V10.67H6.94998V12.2ZM14.57 25.91H13.05V27.43H14.57V28.96H13.05V27.43H11.52V25.91H13.05V24.39H14.57V25.91Z" fill="#000001"/>
<path d="M31.33 16.765H29.81V21.335H31.33V16.765Z" fill="#000001"/>
<path d="M31.33 25.905H20.66V27.425H31.33V25.905Z" fill="#000001"/>
<path d="M28.28 19.805H22.19V21.335H28.28V19.805Z" fill="#000001"/>
<path d="M28.28 16.765H22.19V18.285H28.28V16.765Z" fill="#000001"/>
<path d="M25.24 10.665H17.62V12.195H25.24V10.665Z" fill="#000001"/>
<path d="M25.24 4.57498H17.62V6.09498H25.24V4.57498Z" fill="#000001"/>
<path d="M19.14 16.765H17.62V21.335H19.14V16.765Z" fill="#000001"/>
<path d="M14.57 4.57498H13.05V6.09498H14.57V4.57498Z" fill="#000001"/>
<path d="M6.94996 4.57498H3.89996V6.09498H6.94996V4.57498Z" fill="#000001"/>
<path d="M14.57 3.04499V4.57499H16.09V3.04499H25.24V4.57499H26.76V1.52499H2.38V3.04499H14.57Z" fill="#000001"/>
<path d="M3.9 16.765H2.38V21.335H3.9V16.765Z" fill="#000001"/>
<path d="M2.37998 3.04498H0.849976V7.61498H2.37998V3.04498Z" fill="#000001"/>
</g>
<defs>
<clipPath id="clip0_1128_6566">
<rect width="32" height="32" fill="white" transform="translate(0.849976)"/>
</clipPath>
</defs>
</svg>
