<svg width="33" height="33" viewBox="0 0 33 33" fill="none" xmlns="http://www.w3.org/2000/svg">
<g clip-path="url(#clip0_1135_3801)">
<path d="M31.33 23.8701H29.8V25.39H32.85V19.3H31.33V23.8701Z" fill="#000001"/>
<path d="M32.8501 14.72H31.3301V16.25H32.8501V14.72Z" fill="#000001"/>
<path d="M0.850098 1.01001V25.39H16.0901V23.87H2.3701V2.53001H31.3301V11.68H32.8501V1.01001H0.850098Z" fill="#000001"/>
<path d="M31.33 16.25H29.8V17.77H31.33V16.25Z" fill="#000001"/>
<path d="M31.33 13.2H29.8V14.72H31.33V13.2Z" fill="#000001"/>
<path d="M28.2801 20.82H25.2301V22.34H23.7101V23.87H22.1801V22.34H20.6601V20.82H17.6101V17.77H16.0901V22.34H17.6101V31.49H20.6601V29.96H22.1801V28.44H23.7101V29.96H25.2301V31.49H28.2801V22.34H29.8001V17.77H28.2801V20.82Z" fill="#000001"/>
<path d="M29.8001 7.11006V4.06006H25.2301V5.58006H28.2801V7.11006H29.8001Z" fill="#000001"/>
<path d="M28.2801 13.2H26.7501V17.77H28.2801V13.2Z" fill="#000001"/>
<path d="M26.7501 17.77H25.2301V19.3H26.7501V17.77Z" fill="#000001"/>
<path d="M26.7501 11.6801H25.2301V13.2001H26.7501V11.6801Z" fill="#000001"/>
<path d="M28.2801 10.15V13.2H29.8001V8.63H25.2301V10.15H28.2801Z" fill="#000001"/>
<path d="M25.2302 19.3H20.6602V20.82H25.2302V19.3Z" fill="#000001"/>
<path d="M25.2302 7.10999H23.7102V8.62999H25.2302V7.10999Z" fill="#000001"/>
<path d="M23.7102 5.57996H22.1802V7.10996H23.7102V5.57996Z" fill="#000001"/>
<path d="M25.2302 10.15H20.6602V11.68H25.2302V10.15Z" fill="#000001"/>
<path d="M22.1802 7.10999H20.6602V8.62999H22.1802V7.10999Z" fill="#000001"/>
<path d="M20.6601 17.77H19.1401V19.3H20.6601V17.77Z" fill="#000001"/>
<path d="M20.6601 11.6801H19.1401V13.2001H20.6601V11.6801Z" fill="#000001"/>
<path d="M19.1401 13.2H17.6101V17.77H19.1401V13.2Z" fill="#000001"/>
<path d="M17.6101 10.15H20.6601V8.63H16.0901V13.2H17.6101V10.15Z" fill="#000001"/>
<path d="M16.0901 16.25H14.5601V17.77H16.0901V16.25Z" fill="#000001"/>
<path d="M16.0901 13.2H14.5601V14.72H16.0901V13.2Z" fill="#000001"/>
<path d="M14.56 14.72H13.04V16.25H14.56V14.72Z" fill="#000001"/>
<path d="M20.6601 5.58006V4.06006H3.90015V22.3401H14.5601V20.8201H5.42015V5.58006H20.6601Z" fill="#000001"/>
<path d="M11.5202 13.2H6.9502V14.72H11.5202V13.2Z" fill="#000001"/>
<path d="M11.5202 7.10999H6.9502V11.68H11.5202V7.10999Z" fill="#000001"/>
<path d="M11.5202 16.25H6.9502V17.77H11.5202V16.25Z" fill="#000001"/>
</g>
<defs>
<clipPath id="clip0_1135_3801">
<rect width="32" height="32" fill="white" transform="translate(0.850098 0.25)"/>
</clipPath>
</defs>
</svg>
