<svg width="20" height="20" viewBox="0 0 224 224" fill="none" xmlns="http://www.w3.org/2000/svg">
<rect x="224" y="80" width="16" height="16" transform="rotate(180 224 80)" fill="#1E1E1E"/>
<rect x="224" y="64" width="16" height="16" transform="rotate(180 224 64)" fill="#1E1E1E"/>
<rect x="224" y="48" width="16" height="16" transform="rotate(180 224 48)" fill="#1E1E1E"/>
<rect x="224" y="32" width="16" height="16" transform="rotate(180 224 32)" fill="#1E1E1E"/>
<rect x="209" y="32" width="16" height="16" transform="rotate(180 209 32)" fill="#1E1E1E"/>
<rect x="192" y="16" width="16" height="16" transform="rotate(180 192 16)" fill="#1E1E1E"/>
<rect x="96" y="224" width="16" height="16" transform="rotate(180 96 224)" fill="#1E1E1E"/>
<rect x="128" y="208" width="16" height="16" transform="rotate(180 128 208)" fill="#1E1E1E"/>
<rect x="144" y="192" width="16" height="16" transform="rotate(180 144 192)" fill="#1E1E1E"/>
<rect x="95" y="48" width="16" height="16" transform="rotate(180 95 48)" fill="#1E1E1E"/>
<rect x="80" y="80" width="16" height="16" transform="rotate(180 80 80)" fill="#1E1E1E"/>
<rect x="64" y="112" width="16" height="16" transform="rotate(180 64 112)" fill="#1E1E1E"/>
<rect x="64" y="144" width="16" height="16" transform="rotate(180 64 144)" fill="#1E1E1E"/>
<rect x="80" y="112" width="16" height="16" transform="rotate(180 80 112)" fill="#1E1E1E"/>
<rect x="80" y="144" width="16" height="16" transform="rotate(180 80 144)" fill="#1E1E1E"/>
<rect x="96" y="144" width="16" height="16" transform="rotate(180 96 144)" fill="#1E1E1E"/>
<rect x="112" y="160" width="16" height="16" transform="rotate(180 112 160)" fill="#1E1E1E"/>
<rect x="112" y="224" width="16" height="16" transform="rotate(180 112 224)" fill="#1E1E1E"/>
<rect x="96" y="208" width="16" height="16" transform="rotate(180 96 208)" fill="#1E1E1E"/>
<rect x="96" y="192" width="16" height="16" transform="rotate(180 96 192)" fill="#1E1E1E"/>
<rect x="112" y="176" width="16" height="16" transform="rotate(180 112 176)" fill="#1E1E1E"/>
<rect x="128" y="144" width="16" height="16" transform="rotate(180 128 144)" fill="#1E1E1E"/>
<rect x="144" y="144" width="16" height="16" transform="rotate(180 144 144)" fill="#1E1E1E"/>
<rect x="79" y="48" width="16" height="16" transform="rotate(180 79 48)" fill="#1E1E1E"/>
<rect x="64" y="80" width="16" height="16" transform="rotate(180 64 80)" fill="#1E1E1E"/>
<rect x="48" y="112" width="16" height="16" transform="rotate(180 48 112)" fill="#1E1E1E"/>
<rect x="48" y="144" width="16" height="16" transform="rotate(180 48 144)" fill="#1E1E1E"/>
<rect x="63" y="48" width="16" height="16" transform="rotate(180 63 48)" fill="#1E1E1E"/>
<rect x="48" y="80" width="16" height="16" transform="rotate(180 48 80)" fill="#1E1E1E"/>
<rect x="32" y="112" width="16" height="16" transform="rotate(180 32 112)" fill="#1E1E1E"/>
<rect x="32" y="144" width="16" height="16" transform="rotate(180 32 144)" fill="#1E1E1E"/>
<rect width="16" height="16" transform="matrix(1 0 0 -1 128 16)" fill="#1E1E1E"/>
<rect width="16" height="16" transform="matrix(1 0 0 -1 112 16)" fill="#1E1E1E"/>
<rect width="16" height="16" transform="matrix(1 0 0 -1 96 16)" fill="#1E1E1E"/>
<rect width="16" height="16" transform="matrix(1 0 0 -1 80 16)" fill="#1E1E1E"/>
<rect width="16" height="16" transform="matrix(1 0 0 -1 64 16)" fill="#1E1E1E"/>
<rect width="16" height="16" transform="matrix(1 0 0 -1 48 16)" fill="#1E1E1E"/>
<rect width="16" height="16" transform="matrix(1 0 0 -1 32 32)" fill="#1E1E1E"/>
<rect width="16" height="16" transform="matrix(1 0 0 -1 16 64)" fill="#1E1E1E"/>
<rect width="16" height="16" transform="matrix(1 0 0 -1 0 96)" fill="#1E1E1E"/>
<rect width="16" height="16" transform="matrix(1 0 0 -1 0 128)" fill="#1E1E1E"/>
<rect width="16" height="16" transform="matrix(1 0 0 -1 32 48)" fill="#1E1E1E"/>
<rect width="16" height="16" transform="matrix(1 0 0 -1 16 80)" fill="#1E1E1E"/>
<rect width="16" height="16" transform="matrix(1 0 0 -1 0 112)" fill="#1E1E1E"/>
<rect width="16" height="16" transform="matrix(1 0 0 -1 0 144)" fill="#1E1E1E"/>
<rect x="160" y="16" width="16" height="16" transform="rotate(180 160 16)" fill="#1E1E1E"/>
<rect x="176" y="16" width="16" height="16" transform="rotate(180 176 16)" fill="#1E1E1E"/>
<rect x="160" y="176" width="16" height="16" transform="rotate(180 160 176)" fill="#1E1E1E"/>
<rect x="160" y="160" width="16" height="16" transform="rotate(180 160 160)" fill="#1E1E1E"/>
<rect x="224" y="96" width="16" height="16" transform="rotate(180 224 96)" fill="#1E1E1E"/>
<rect x="224" y="112" width="16" height="16" transform="rotate(180 224 112)" fill="#1E1E1E"/>
<rect x="176" y="160" width="16" height="16" transform="rotate(180 176 160)" fill="#1E1E1E"/>
<rect x="192" y="144" width="16" height="16" transform="rotate(180 192 144)" fill="#1E1E1E"/>
<rect x="208" y="128" width="16" height="16" transform="rotate(180 208 128)" fill="#1E1E1E"/>
<rect x="224" y="128" width="16" height="16" transform="rotate(180 224 128)" fill="#1E1E1E"/>
</svg>
