<svg width="20" height="20" viewBox="0 0 20 20" fill="none" xmlns="http://www.w3.org/2000/svg">
<g id="emoji">
<path id="Union" fill-rule="evenodd" clip-rule="evenodd" d="M5.83333 2.5H14.1667V4.16667H5.83333V2.5ZM4.16667 5.83333V4.16667H5.83333V5.83333H4.16667ZM4.16667 14.1667H2.5V5.83333H4.16667V14.1667ZM5.83333 15.8333H4.16667V14.1667H5.83333V15.8333ZM14.1667 15.8333V17.5H5.83333V15.8333H14.1667ZM15.8333 14.1667V15.8333H14.1667V14.1667H15.8333ZM15.8333 5.83333H17.5V14.1667H15.8333V5.83333ZM15.8333 5.83333V4.16667H14.1667V5.83333H15.8333ZM9.16667 11.6667H7.5V13.3333H9.16667L9.16667 14.1667H10.8333L10.8333 13.3333H12.5V11.6667H10.8333L10.8333 12.5H9.16667L9.16667 11.6667ZM13.3335 7.5H11.6669V9.16667H13.3335V7.5ZM6.66667 7.5H8.33333V9.16667H6.66667V7.5Z" fill="black"/>
</g>
</svg>
