<svg width="20" height="20" viewBox="0 0 20 20" fill="none" xmlns="http://www.w3.org/2000/svg">
<g id="like">
<path id="Union" fill-rule="evenodd" clip-rule="evenodd" d="M7.54545 2H4.27273V3.63636H2.63636V5.27273H1V10.1818H2.63636V11.8182H4.27273V13.4545H5.90909V15.0909H7.54545V16.7273H9.18182V18.3636H10.8182V16.7273H12.4545V15.0909H14.0909V13.4545L15.7273 13.4545V11.8182H17.3636V10.1818H19V5.27273H17.3636V3.63636H15.7273V2H12.4545V3.63636H10.8182V5.27273H9.18182V3.63636H7.54545V2ZM7.54545 3.63636V5.27273H9.18182V6.90909H10.8182V5.27273H12.4545L12.4545 3.63636H15.7273L15.7273 5.27273H17.3636V10.1818H15.7273V11.8182H14.0909V13.4545H12.4545L12.4545 15.0909H10.8182V16.7273H9.18182V15.0909H7.54545V13.4545L5.90909 13.4545V11.8182H4.27273V10.1818H2.63636V5.27273H4.27273V3.63636H7.54545Z" fill="black"/>
</g>
</svg>
