<svg width="20" height="20" viewBox="0 0 20 20" fill="none" xmlns="http://www.w3.org/2000/svg">
<g id="location">
<path id="Union" fill-rule="evenodd" clip-rule="evenodd" d="M9.17135 19H11.0285V17.2H9.17137V13.6H7.31423V17.2H9.17135V19ZM12.8856 4.60001H14.7428V2.80001H12.8856V4.60001ZM12.8857 2.79999H7.31426V0.999989H12.8857V2.79999ZM11.0286 17.2H12.8857V13.6H11.0286V17.2ZM14.7428 13.6H12.8856V10H14.7428L14.7428 13.6ZM14.7428 10H16.6V4.6H14.7428V10ZM5.4571 4.6L7.31417 4.60001V2.80001H5.45702V4.60001L3.59995 4.6V10H5.4571V4.6ZM5.45702 13.6L7.31417 13.6L7.31417 10H5.45702L5.45702 13.6Z" fill="black"/>
<rect id="Rectangle 3199" x="9" y="7" width="2" height="2" fill="black"/>
</g>
</svg>
