<svg width="33" height="32" viewBox="0 0 33 32" fill="none" xmlns="http://www.w3.org/2000/svg">
<path d="M30.5651 9.14H29.0351V21.33H30.5651V9.14Z" fill="#000001"/>
<path d="M29.0351 7.62H27.5151V9.14H29.0351V7.62Z" fill="#000001"/>
<path d="M4.65507 22.86H13.7951V32H15.3251V22.86H19.8951V32H21.4151V22.86H29.0351V21.33H15.3251V9.14H13.7951V7.62H19.8951V12.19H21.4151V7.62H27.5151V6.09H21.4151V4.57H25.9851V0H19.8951V6.09H6.17507V7.62H4.65507V9.14H3.13507V21.33H4.65507V22.86ZM21.4151 1.52H24.4651V3.05H21.4151V1.52ZM4.65507 10.66H6.17507V9.14H9.22507V10.66H6.17507V18.28H4.65507V10.66Z" fill="#000001"/>
</svg>
