<svg width="33" height="33" viewBox="0 0 33 33" fill="none" xmlns="http://www.w3.org/2000/svg">
<g clip-path="url(#clip0_1135_4523)">
<path d="M31.3301 8.62498H17.6101V7.10498H14.5701V8.62498H2.38013V10.155H26.7601V28.435H2.38013V29.965H31.3301V28.435H32.8501V10.155H31.3301V8.62498Z" fill="#000001"/>
<path d="M25.2301 25.395H22.1801V26.915H25.2301V25.395Z" fill="#000001"/>
<path d="M25.2301 22.3451H22.1801V23.8651H25.2301V22.3451Z" fill="#000001"/>
<path d="M25.2301 16.245H22.1801V19.295H25.2301V16.245Z" fill="#000001"/>
<path d="M25.2301 11.675H22.1801V14.725H25.2301V11.675Z" fill="#000001"/>
<path d="M22.1801 2.53503H20.6601V4.05503H22.1801V2.53503Z" fill="#000001"/>
<path d="M20.6601 13.1951H19.1401V25.3951H20.6601V13.1951Z" fill="#000001"/>
<path d="M20.6601 4.05505H19.1401V5.58505H20.6601V4.05505Z" fill="#000001"/>
<path d="M19.1401 5.58508H17.6101V7.10508H19.1401V5.58508Z" fill="#000001"/>
<path d="M14.5701 5.58508H13.0401V7.10508H14.5701V5.58508Z" fill="#000001"/>
<path d="M13.0401 4.05505H11.5201V5.58505H13.0401V4.05505Z" fill="#000001"/>
<path d="M11.5201 2.53503H9.99011V4.05503H11.5201V2.53503Z" fill="#000001"/>
<path d="M17.6101 13.195H19.1401V11.675H5.4201V13.195H6.9501V25.395H5.4201V26.915H19.1401V25.395H17.6101V13.195ZM11.5201 25.395H9.99011V13.195H11.5201V25.395ZM14.5701 25.395H13.0401V13.195H14.5701V25.395Z" fill="#000001"/>
<path d="M5.42009 13.1951H3.90009V25.3951H5.42009V13.1951Z" fill="#000001"/>
<path d="M2.3801 10.155H0.850098V28.435H2.3801V10.155Z" fill="#000001"/>
</g>
<defs>
<clipPath id="clip0_1135_4523">
<rect width="32" height="32" fill="white" transform="translate(0.850098 0.25)"/>
</clipPath>
</defs>
</svg>
