<svg width="29" height="29" viewBox="0 0 29 29" fill="none" xmlns="http://www.w3.org/2000/svg">
<g clip-path="url(#clip0_196_480)">
<path fill-rule="evenodd" clip-rule="evenodd" d="M23.1133 11.7996L25.6275 14.3137L23.1133 16.8279L20.5992 14.3137L23.1133 11.7996ZM16.8279 5.51421L14.3137 3.00005L11.7996 5.51421L14.3137 8.02837L16.8279 5.51421ZM8.02829 14.3137L5.51413 11.7996L2.99998 14.3137L5.51413 16.8279L8.02829 14.3137ZM16.8279 23.1133L14.3137 20.5992L11.7996 23.1133L14.3137 25.6275L16.8279 23.1133ZM14.3137 9.28543L15.5708 10.5425L14.3137 11.7996L13.0566 10.5425L14.3137 9.28543ZM15.5708 13.0567L14.3137 11.7996L13.0566 13.0567L14.3137 14.3137L15.5708 13.0567ZM11.7996 14.3138L13.0567 13.0567L14.3137 14.3137L15.5708 13.0567L16.8279 14.3138L15.5708 15.5708L15.5708 15.5709L14.3137 16.8279L13.0567 15.5709L13.0566 15.5708L11.7996 14.3138ZM15.5708 18.085L14.3137 16.8279L13.0566 18.085L14.3137 19.3421L15.5708 18.085ZM18.085 13.0567L19.3421 14.3138L18.085 15.5709L16.8279 14.3138L18.085 13.0567ZM11.7995 14.3138L10.5425 13.0567L9.28537 14.3138L10.5425 15.5709L11.7995 14.3138Z" fill="black"/>
</g>
<defs>
<clipPath id="clip0_196_480">
<rect width="20" height="20" fill="white" transform="translate(14.1421) rotate(45)"/>
</clipPath>
</defs>
</svg>
