<svg width="21" height="20" viewBox="0 0 21 20" fill="none" xmlns="http://www.w3.org/2000/svg">
<path fill-rule="evenodd" clip-rule="evenodd" d="M5.63114 1.66675H12.142V3.33341H5.63114V1.66675ZM4.00344 5.00008V3.33341H5.63114V5.00008H4.00344ZM4.00344 11.6667H2.37573V5.00008H4.00344V11.6667ZM5.63114 13.3334H4.00344V11.6667H5.63114V13.3334ZM12.142 13.3334V15.0001H5.63114V13.3334H12.142ZM13.7697 11.6667H12.142L12.142 13.3334H13.7697V15.0001H15.3974V16.6667H17.0251V18.3334H18.6528V16.6667H17.0251V15.0001H15.3974V13.3334H13.7697V11.6667ZM13.7697 5.00008H15.3974V11.6667H13.7697V5.00008ZM13.7697 5.00008V3.33341H12.142L12.142 5.00008H13.7697Z" fill="black"/>
</svg>
