<svg width="33" height="32" viewBox="0 0 33 32" fill="none" xmlns="http://www.w3.org/2000/svg">
<g clip-path="url(#clip0_1128_14351)">
<path d="M29.8 7.62V9.14H31.33V10.67H29.8V12.19H32.85V7.62H29.8Z" fill="#000001"/>
<path d="M31.33 13.71H29.8V15.24H31.33V13.71Z" fill="#000001"/>
<path d="M31.33 4.57001H29.8V6.09001H31.33V4.57001Z" fill="#000001"/>
<path d="M29.8002 15.24H28.2802V16.76H29.8002V15.24Z" fill="#000001"/>
<path d="M29.8002 12.19H28.2802V13.71H29.8002V12.19Z" fill="#000001"/>
<path d="M29.8002 6.09003H28.2802V7.62003H29.8002V6.09003Z" fill="#000001"/>
<path d="M29.8002 3.04999H28.2802V4.56999H29.8002V3.04999Z" fill="#000001"/>
<path d="M28.2801 16.76H26.7601V18.28H28.2801V16.76Z" fill="#000001"/>
<path d="M28.2801 1.52002H26.7601V3.05002H28.2801V1.52002Z" fill="#000001"/>
<path d="M26.7601 15.24H25.2301V16.76H26.7601V15.24Z" fill="#000001"/>
<path d="M26.7601 3.04999H25.2301V4.56999H26.7601V3.04999Z" fill="#000001"/>
<path d="M20.6602 0V3.05H22.1902V1.52H23.7102V3.05H25.2302V0H20.6602Z" fill="#000001"/>
<path d="M23.7101 25.9H22.1901V27.43H23.7101V25.9Z" fill="#000001"/>
<path d="M20.6602 16.76V18.28H23.7102V21.33H20.6602V22.86H25.2302V16.76H20.6602Z" fill="#000001"/>
<path d="M22.1902 27.43H20.6602V28.95H22.1902V27.43Z" fill="#000001"/>
<path d="M22.1902 24.38H20.6602V25.9H22.1902V24.38Z" fill="#000001"/>
<path d="M22.1902 13.71H20.6602V15.24H22.1902V13.71Z" fill="#000001"/>
<path d="M20.6601 12.19H22.1901V13.71H25.2301V12.19H26.7601V7.62003H25.2301V9.14003H23.7101V7.62003H25.2301V6.09003H20.6601V7.62003H19.1401V10.67H20.6601V12.19Z" fill="#000001"/>
<path d="M20.6601 28.95H19.1401V30.48H20.6601V28.95Z" fill="#000001"/>
<path d="M20.6601 22.86H19.1401V24.38H20.6601V22.86Z" fill="#000001"/>
<path d="M20.6601 15.24H19.1401V16.76H20.6601V15.24Z" fill="#000001"/>
<path d="M20.6601 3.04999H19.1401V4.56999H20.6601V3.04999Z" fill="#000001"/>
<path d="M19.1401 27.43H17.6101V28.95H19.1401V27.43Z" fill="#000001"/>
<path d="M19.1401 10.67H17.6101V12.19H19.1401V10.67Z" fill="#000001"/>
<path d="M19.1401 1.52002H17.6101V3.05002H19.1401V1.52002Z" fill="#000001"/>
<path d="M17.6101 25.9H16.0901V27.43H17.6101V25.9Z" fill="#000001"/>
<path d="M17.6101 18.28H16.0901V21.33H17.6101V18.28Z" fill="#000001"/>
<path d="M17.6101 12.19H16.0901V13.71H17.6101V12.19Z" fill="#000001"/>
<path d="M17.6101 3.04999H16.0901V4.56999H17.6101V3.04999Z" fill="#000001"/>
<path d="M14.5701 30.48H11.5201V27.43H10.0001V32H16.0901V27.43H14.5701V30.48Z" fill="#000001"/>
<path d="M16.0901 21.33H14.5701V22.86H16.0901V21.33Z" fill="#000001"/>
<path d="M16.0901 16.76H14.5701V18.28H16.0901V16.76Z" fill="#000001"/>
<path d="M16.0901 4.57001H14.5701V6.09001H16.0901V4.57001Z" fill="#000001"/>
<path d="M14.5701 15.24H11.5201V16.76H14.5701V15.24Z" fill="#000001"/>
<path d="M14.5701 22.86H11.5201V24.38H14.5701V22.86Z" fill="#000001"/>
<path d="M11.5201 21.33H10.0001V22.86H11.5201V21.33Z" fill="#000001"/>
<path d="M11.5201 16.76H10.0001V18.28H11.5201V16.76Z" fill="#000001"/>
<path d="M11.5201 9.14H14.5701V12.19H16.0901V7.62H10.0001V12.19H11.5201V9.14Z" fill="#000001"/>
<path d="M10.0001 25.9H8.47009V27.43H10.0001V25.9Z" fill="#000001"/>
<path d="M10.0001 18.28H8.47009V21.33H10.0001V18.28Z" fill="#000001"/>
<path d="M10.0001 12.19H8.47009V13.71H10.0001V12.19Z" fill="#000001"/>
<path d="M8.47007 27.43H6.95007V28.95H8.47007V27.43Z" fill="#000001"/>
<path d="M8.47007 10.67H6.95007V12.19H8.47007V10.67Z" fill="#000001"/>
<path d="M6.95004 28.95H5.42004V30.48H6.95004V28.95Z" fill="#000001"/>
<path d="M6.95004 22.86H5.42004V24.38H6.95004V22.86Z" fill="#000001"/>
<path d="M6.95004 15.24H5.42004V16.76H6.95004V15.24Z" fill="#000001"/>
<path d="M6.95004 9.14001H5.42004V10.67H6.95004V9.14001Z" fill="#000001"/>
<path d="M5.42015 27.43H3.90015V28.95H5.42015V27.43Z" fill="#000001"/>
<path d="M5.42015 24.38H3.90015V25.9H5.42015V24.38Z" fill="#000001"/>
<path d="M2.3801 21.33V18.28H5.4201V16.76H0.850098V22.86H5.4201V21.33H2.3801Z" fill="#000001"/>
<path d="M5.42015 13.71H3.90015V15.24H5.42015V13.71Z" fill="#000001"/>
<path d="M5.42015 10.67H3.90015V12.19H5.42015V10.67Z" fill="#000001"/>
<path d="M3.90013 25.9H2.38013V27.43H3.90013V25.9Z" fill="#000001"/>
<path d="M3.90013 12.19H2.38013V13.71H3.90013V12.19Z" fill="#000001"/>
</g>
<defs>
<clipPath id="clip0_1128_14351">
<rect width="32" height="32" fill="white" transform="translate(0.850098)"/>
</clipPath>
</defs>
</svg>
