<?xml version="1.0" ?><!DOCTYPE svg  PUBLIC '-//W3C//DTD SVG 1.1//EN'  'http://www.w3.org/Graphics/SVG/1.1/DTD/svg11.dtd'><svg enable-background="new 0 0 24 24" height="24px" version="1.1" viewBox="0 0 24 24" width="24px" xml:space="preserve" xmlns="http://www.w3.org/2000/svg" xmlns:xlink="http://www.w3.org/1999/xlink"><g id="Layer_3"/><g id="Layer_4"/><g id="Layer_5"/><g id="Layer_7"/><g id="Layer_8"/><g id="Layer_9"/><g id="Layer_10"/><g id="Layer_11"/><g id="Layer_12"/><g id="Layer_13"/><g id="Layer_14"><path d="M13,4h-2V2h2V4z M19.778,5.636l-1.414-1.414l-1.415,1.414l1.414,1.414L19.778,5.636z M20,11v1.999L22,13v-2H20z    M16.95,18.363l1.413,1.415l1.415-1.414l-1.413-1.415L16.95,18.363z M11,21.999l2,0.002l0.001-1.999l-2-0.002L11,21.999z    M4.222,18.364l1.413,1.414l1.415-1.413l-1.413-1.414L4.222,18.364z M2,13h2v-1.999L2,11V13z M7.05,5.637L5.636,4.222L4.221,5.635   L5.635,7.05L7.05,5.637z M18,12c0,3.309-2.691,6-6,6s-6-2.691-6-6s2.691-6,6-6S18,8.691,18,12z M16,12c0-2.206-1.794-4-4-4   s-4,1.794-4,4c0,2.206,1.794,4,4,4S16,14.206,16,12z"/></g><g id="Layer_15"/><g id="Layer_16"/><g id="Layer_17"/><g id="Layer_18"/><g id="Layer_19"/><g id="Layer_20"/><g id="Layer_21"/><g id="Layer_22"/><g id="Layer_23"/><g id="Layer_24"/><g id="Layer_25"/><g id="Layer_26"/><g id="Layer_27"/><g id="Layer_28"/></svg>