<svg width="20" height="20" viewBox="0 0 20 20" fill="none" xmlns="http://www.w3.org/2000/svg">
<g id="time">
<path id="Union" fill-rule="evenodd" clip-rule="evenodd" d="M12.5 1.66675H14.1667V3.33341H15.8333H17.5V5.00008V6.66675V8.33341V16.6667V18.3334L15.8333 18.3334H4.16667L2.5 18.3334V16.6667V8.33341V6.66675V5.00008V3.33341H4.16667H5.83333V1.66675H7.5V3.33341H12.5V1.66675ZM7.5 5.00008H5.83333H4.16667V6.66675H15.8333V5.00008H14.1667H12.5H7.5ZM4.16667 8.33341V16.6667H15.8333V8.33341H4.16667ZM5.83333 10.0001H7.5V11.6667H5.83333V10.0001ZM10.8333 10.0001H9.16667V11.6667H10.8333V10.0001ZM12.5 10.0001H14.1667V11.6667H12.5V10.0001ZM7.5 13.3334H5.83333V15.0001H7.5V13.3334ZM9.16667 13.3334H10.8333V15.0001H9.16667V13.3334ZM14.1667 13.3334H12.5V15.0001H14.1667V13.3334Z" fill="black"/>
</g>
</svg>
