<svg width="16" height="18" viewBox="0 0 16 18" fill="none" xmlns="http://www.w3.org/2000/svg">
<path id="Union" fill-rule="evenodd" clip-rule="evenodd" d="M1.77778 0H14.2222H16V1.77778V16V17.7778H14.2222H1.77778H0V16V1.77778V0H1.77778ZM14.2222 16V1.77778H1.77778V16H14.2222ZM3.18728 8L4.44436 6.74292L5.51739 7.81595L6.59041 6.74292L7.66333 7.81584L8.73625 6.74292L9.99332 8L8.73625 9.25708L7.66333 8.18416L6.59041 9.25708L5.51739 8.18405L4.44436 9.25708L3.18728 8ZM4.44458 10.6667L3.1875 11.9237L4.44458 13.1808L5.5175 12.1079L6.59041 13.1808L7.84749 11.9237L6.59041 10.6667L5.5175 11.7396L4.44458 10.6667ZM3.1875 3.92375L4.44458 2.66667L5.5175 3.73958L6.59041 2.66667L7.66333 3.73958L8.73625 2.66667L9.88555 3.81597L11.0349 2.66667L12.2919 3.92375L11.0349 5.18083L9.88555 4.03152L8.73625 5.18083L7.66333 4.10791L6.59041 5.18083L5.5175 4.10791L4.44458 5.18083L3.1875 3.92375Z" fill="black"/>
</svg>
