<svg width="33" height="32" viewBox="0 0 33 32" fill="none" xmlns="http://www.w3.org/2000/svg">
<path d="M28.2751 13.71H26.7551V9.14001H25.2251V21.33H26.7551V15.24H28.2751V16.76H29.8051V12.19H28.2751V13.71Z" fill="#000001"/>
<path d="M23.7052 28.9501V32.0001H25.2252V30.4801H28.2752V32.0001H29.8052V27.4301H28.2752V28.9501H23.7052Z" fill="#000001"/>
<path d="M28.2751 1.52002H26.7551V3.05002H28.2751V1.52002Z" fill="#000001"/>
<path d="M26.7551 3.05005H25.2251V4.57005H26.7551V3.05005Z" fill="#000001"/>
<path d="M26.7551 0H25.2251V1.52H26.7551V0Z" fill="#000001"/>
<path d="M25.2252 21.33H23.7052V22.86H25.2252V21.33Z" fill="#000001"/>
<path d="M25.2252 7.62H23.7052V9.14H25.2252V7.62Z" fill="#000001"/>
<path d="M22.1851 13.7099H20.6551V12.1899H19.1351V15.2399H20.6551V16.7599H22.1851V15.2399H23.7051V12.1899H22.1851V13.7099Z" fill="#000001"/>
<path d="M23.7052 1.52002H22.1852V3.05002H23.7052V1.52002Z" fill="#000001"/>
<path d="M9.99516 22.86V24.38H11.5152V25.9H5.41516V27.43H28.2752V25.9H22.1852V24.38H23.7052V22.86H9.99516ZM20.6552 25.9H13.0352V24.38H20.6552V25.9Z" fill="#000001"/>
<path d="M22.1852 3.05005H20.6552V4.57005H22.1852V3.05005Z" fill="#000001"/>
<path d="M22.1852 0H20.6552V1.52H22.1852V0Z" fill="#000001"/>
<path d="M11.5151 28.95V32H13.0351V30.4799H20.6551V32H22.1851V28.95H11.5151Z" fill="#000001"/>
<path d="M19.1351 1.52002H17.6051V3.05002H19.1351V1.52002Z" fill="#000001"/>
<path d="M17.6052 18.28H16.0852V19.81H14.5652V21.33H19.1352V19.81H17.6052V18.28Z" fill="#000001"/>
<path d="M17.6051 0H16.0851V1.52H17.6051V0Z" fill="#000001"/>
<path d="M16.0852 1.52002H14.5652V3.05002H16.0852V1.52002Z" fill="#000001"/>
<path d="M14.5651 12.1899H13.0351V13.7099H11.5151V12.1899H9.99512V15.2399H11.5151V16.7599H13.0351V15.2399H14.5651V12.1899Z" fill="#000001"/>
<path d="M11.5151 9.14005H13.0351V10.67H20.6551V9.14005H22.1851V7.62005H23.7051V6.09005H17.6051V3.05005H16.0851V6.09005H9.99512V7.62005H11.5151V9.14005Z" fill="#000001"/>
<path d="M13.0351 3.05005H11.5151V4.57005H13.0351V3.05005Z" fill="#000001"/>
<path d="M13.0351 0H11.5151V1.52H13.0351V0Z" fill="#000001"/>
<path d="M11.5151 1.52002H9.99512V3.05002H11.5151V1.52002Z" fill="#000001"/>
<path d="M9.99509 21.33H8.46509V22.86H9.99509V21.33Z" fill="#000001"/>
<path d="M9.99509 7.62H8.46509V9.14H9.99509V7.62Z" fill="#000001"/>
<path d="M8.46514 9.14001H6.94514V13.71H5.41514V12.19H3.89514V16.76H5.41514V15.24H6.94514V21.33H8.46514V9.14001Z" fill="#000001"/>
<path d="M8.46519 3.05005H6.94519V4.57005H8.46519V3.05005Z" fill="#000001"/>
<path d="M8.46519 0H6.94519V1.52H8.46519V0Z" fill="#000001"/>
<path d="M6.94516 1.52002H5.41516V3.05002H6.94516V1.52002Z" fill="#000001"/>
<path d="M3.89514 32.0001H5.41514V30.4801H8.46514V32.0001H9.99514V28.9501H5.41514V27.4301H3.89514V32.0001Z" fill="#000001"/>
</svg>
